<mxfile host="app.diagrams.net" agent="Mozilla/5.0 (Windows NT 10.0; Win64; x64) AppleWebKit/537.36 (KHTML, like Gecko) Chrome/136.0.0.0 Safari/537.36" version="28.0.6">
  <diagram name="Trang-1" id="FN_A0byMbIAYqAlf2qym">
    <mxGraphModel dx="1869" dy="527" grid="0" gridSize="10" guides="1" tooltips="1" connect="1" arrows="1" fold="1" page="1" pageScale="1" pageWidth="827" pageHeight="1169" math="0" shadow="0">
      <root>
        <mxCell id="0" />
        <mxCell id="1" parent="0" />
        <mxCell id="ch6HkYALIpBvl12C_KN1-13" style="edgeStyle=orthogonalEdgeStyle;rounded=0;orthogonalLoop=1;jettySize=auto;html=1;" edge="1" parent="1" source="ch6HkYALIpBvl12C_KN1-1" target="ch6HkYALIpBvl12C_KN1-3">
          <mxGeometry relative="1" as="geometry" />
        </mxCell>
        <mxCell id="ch6HkYALIpBvl12C_KN1-1" value="Học" style="rhombus;whiteSpace=wrap;html=1;" vertex="1" parent="1">
          <mxGeometry x="388" y="176" width="80" height="80" as="geometry" />
        </mxCell>
        <mxCell id="ch6HkYALIpBvl12C_KN1-16" style="edgeStyle=orthogonalEdgeStyle;rounded=0;orthogonalLoop=1;jettySize=auto;html=1;entryX=1;entryY=0.5;entryDx=0;entryDy=0;" edge="1" parent="1" source="ch6HkYALIpBvl12C_KN1-2" target="ch6HkYALIpBvl12C_KN1-7">
          <mxGeometry relative="1" as="geometry" />
        </mxCell>
        <mxCell id="ch6HkYALIpBvl12C_KN1-17" style="edgeStyle=orthogonalEdgeStyle;rounded=0;orthogonalLoop=1;jettySize=auto;html=1;entryX=1;entryY=0.5;entryDx=0;entryDy=0;" edge="1" parent="1" source="ch6HkYALIpBvl12C_KN1-2" target="ch6HkYALIpBvl12C_KN1-8">
          <mxGeometry relative="1" as="geometry" />
        </mxCell>
        <mxCell id="ch6HkYALIpBvl12C_KN1-2" value="Sinh viên" style="rounded=0;whiteSpace=wrap;html=1;" vertex="1" parent="1">
          <mxGeometry x="234" y="198" width="120" height="60" as="geometry" />
        </mxCell>
        <mxCell id="ch6HkYALIpBvl12C_KN1-21" style="edgeStyle=orthogonalEdgeStyle;rounded=0;orthogonalLoop=1;jettySize=auto;html=1;" edge="1" parent="1" source="ch6HkYALIpBvl12C_KN1-3" target="ch6HkYALIpBvl12C_KN1-18">
          <mxGeometry relative="1" as="geometry" />
        </mxCell>
        <mxCell id="ch6HkYALIpBvl12C_KN1-22" style="edgeStyle=orthogonalEdgeStyle;rounded=0;orthogonalLoop=1;jettySize=auto;html=1;" edge="1" parent="1" source="ch6HkYALIpBvl12C_KN1-3" target="ch6HkYALIpBvl12C_KN1-19">
          <mxGeometry relative="1" as="geometry" />
        </mxCell>
        <mxCell id="ch6HkYALIpBvl12C_KN1-3" value="..." style="ellipse;whiteSpace=wrap;html=1;" vertex="1" parent="1">
          <mxGeometry x="358" y="296" width="120" height="80" as="geometry" />
        </mxCell>
        <mxCell id="ch6HkYALIpBvl12C_KN1-10" style="edgeStyle=orthogonalEdgeStyle;rounded=0;orthogonalLoop=1;jettySize=auto;html=1;entryX=1;entryY=0.5;entryDx=0;entryDy=0;" edge="1" parent="1" source="ch6HkYALIpBvl12C_KN1-4" target="ch6HkYALIpBvl12C_KN1-1">
          <mxGeometry relative="1" as="geometry" />
        </mxCell>
        <mxCell id="ch6HkYALIpBvl12C_KN1-14" style="edgeStyle=orthogonalEdgeStyle;rounded=0;orthogonalLoop=1;jettySize=auto;html=1;entryX=0;entryY=0.5;entryDx=0;entryDy=0;" edge="1" parent="1" source="ch6HkYALIpBvl12C_KN1-4" target="ch6HkYALIpBvl12C_KN1-6">
          <mxGeometry relative="1" as="geometry" />
        </mxCell>
        <mxCell id="ch6HkYALIpBvl12C_KN1-15" style="edgeStyle=orthogonalEdgeStyle;rounded=0;orthogonalLoop=1;jettySize=auto;html=1;entryX=0;entryY=0.5;entryDx=0;entryDy=0;" edge="1" parent="1" source="ch6HkYALIpBvl12C_KN1-4" target="ch6HkYALIpBvl12C_KN1-5">
          <mxGeometry relative="1" as="geometry" />
        </mxCell>
        <mxCell id="ch6HkYALIpBvl12C_KN1-4" value="Lớp" style="rounded=0;whiteSpace=wrap;html=1;" vertex="1" parent="1">
          <mxGeometry x="497" y="194" width="120" height="60" as="geometry" />
        </mxCell>
        <mxCell id="ch6HkYALIpBvl12C_KN1-5" value="" style="ellipse;whiteSpace=wrap;html=1;" vertex="1" parent="1">
          <mxGeometry x="693" y="242" width="120" height="80" as="geometry" />
        </mxCell>
        <mxCell id="ch6HkYALIpBvl12C_KN1-6" value="Mã lớp" style="ellipse;whiteSpace=wrap;html=1;" vertex="1" parent="1">
          <mxGeometry x="679" y="96" width="120" height="80" as="geometry" />
        </mxCell>
        <mxCell id="ch6HkYALIpBvl12C_KN1-7" value="Mã sinh viên" style="ellipse;whiteSpace=wrap;html=1;" vertex="1" parent="1">
          <mxGeometry x="-44" y="73" width="120" height="80" as="geometry" />
        </mxCell>
        <mxCell id="ch6HkYALIpBvl12C_KN1-8" value="Tên sinh viên" style="ellipse;whiteSpace=wrap;html=1;" vertex="1" parent="1">
          <mxGeometry x="-65" y="235" width="120" height="80" as="geometry" />
        </mxCell>
        <mxCell id="ch6HkYALIpBvl12C_KN1-9" style="edgeStyle=orthogonalEdgeStyle;rounded=0;orthogonalLoop=1;jettySize=auto;html=1;entryX=0.105;entryY=0.485;entryDx=0;entryDy=0;entryPerimeter=0;" edge="1" parent="1" source="ch6HkYALIpBvl12C_KN1-2" target="ch6HkYALIpBvl12C_KN1-1">
          <mxGeometry relative="1" as="geometry" />
        </mxCell>
        <mxCell id="ch6HkYALIpBvl12C_KN1-18" value="..." style="ellipse;whiteSpace=wrap;html=1;" vertex="1" parent="1">
          <mxGeometry x="136" y="396" width="120" height="131" as="geometry" />
        </mxCell>
        <mxCell id="ch6HkYALIpBvl12C_KN1-26" style="edgeStyle=orthogonalEdgeStyle;rounded=0;orthogonalLoop=1;jettySize=auto;html=1;entryX=1;entryY=0.5;entryDx=0;entryDy=0;" edge="1" parent="1" source="ch6HkYALIpBvl12C_KN1-19" target="ch6HkYALIpBvl12C_KN1-18">
          <mxGeometry relative="1" as="geometry" />
        </mxCell>
        <mxCell id="ch6HkYALIpBvl12C_KN1-19" value="..." style="ellipse;whiteSpace=wrap;html=1;" vertex="1" parent="1">
          <mxGeometry x="570" y="405" width="120" height="157" as="geometry" />
        </mxCell>
        <mxCell id="ch6HkYALIpBvl12C_KN1-23" value="1" style="text;html=1;align=center;verticalAlign=middle;whiteSpace=wrap;rounded=0;" vertex="1" parent="1">
          <mxGeometry x="449" y="172" width="60" height="30" as="geometry" />
        </mxCell>
        <mxCell id="ch6HkYALIpBvl12C_KN1-24" value="N" style="text;html=1;align=center;verticalAlign=middle;whiteSpace=wrap;rounded=0;" vertex="1" parent="1">
          <mxGeometry x="342" y="150" width="60" height="30" as="geometry" />
        </mxCell>
        <mxCell id="ch6HkYALIpBvl12C_KN1-25" value="Nếu là full , kết hợp" style="text;html=1;align=center;verticalAlign=middle;whiteSpace=wrap;rounded=0;" vertex="1" parent="1">
          <mxGeometry x="162" y="474" width="60" height="30" as="geometry" />
        </mxCell>
        <mxCell id="ch6HkYALIpBvl12C_KN1-27" value="Ràng buộc ko full, ko kết hợp" style="text;html=1;align=center;verticalAlign=middle;whiteSpace=wrap;rounded=0;" vertex="1" parent="1">
          <mxGeometry x="603" y="504" width="60" height="30" as="geometry" />
        </mxCell>
      </root>
    </mxGraphModel>
  </diagram>
</mxfile>
